# xmcd CD database file
#
# Track frame offsets:
#	182
#	12492
#	33192
#	45867
#	59292
#	75717
#	94092
#	106392
#	120192
#	134367
#	147342
#	162642
#
# Disc length: 2322 seconds
#
# Revision: 0
# Processed by: cddbd v1.5.2PL0 Copyright (c) Steve Scherf et al.
# Submitted via: ACXtractor (MTCDDB.DLL V2003.12.21)
#
DISCID=9509100c
DTITLE=Christina George - Pages of my Life
DYEAR=1998
DGENRE=Country
TTITLE0=Pages of my Life
TTITLE1=Mothers Prayer
TTITLE2=Down River Road
TTITLE3=Then and only Then
TTITLE4=Fallin' Snow
TTITLE5=Mungyer Days
TTITLE6=When a Boy in Your Arms
TTITLE7=Thanks for the Memories
TTITLE8=Stormy Clouds
TTITLE9=I Cried Myself Awake
TTITLE10=I Can't Bring Myself to Leave You
TTITLE11=Who shares Your Dreams
EXTD=ID3G:   2 YEAR: 1998
EXTT0=
EXTT1=
EXTT2=
EXTT3=
EXTT4=
EXTT5=
EXTT6=
EXTT7=
EXTT8=
EXTT9=
EXTT10=
EXTT11=
PLAYORDER=
